<svg width="454" height="407" viewBox="0 0 454 407" fill="none" xmlns="http://www.w3.org/2000/svg">
<path d="M140 121.497C140 188.573 210.295 242.961 296.993 242.961C312.022 242.975 327.017 241.286 341.762 237.918C384.649 291.049 444.997 286.926 444.997 286.926C454.021 278.335 444.997 271.296 444.997 271.296C413.79 251.938 401.484 231.38 397.196 215.011C431.903 192.721 454 159.105 454 121.48C454 54.3955 383.69 0 297.007 0C210.295 0 140.014 54.3873 140.014 121.497" fill="#1C9D9D"/>
<path d="M156.996 118C70.2756 118 0 172.775 0 240.327C0 278.214 22.1258 312.073 56.8056 334.51C52.5097 350.993 40.2042 371.694 8.99658 391.187C8.99658 391.187 -0.0284033 398.266 8.99658 406.925C8.99658 406.925 69.3525 411.069 112.234 357.568C126.414 360.859 141.425 362.654 157.004 362.654C243.71 362.654 314 307.879 314 240.335C314.007 172.775 243.703 118 156.996 118Z" fill="#008080"/>
</svg>
